# xmcd
#
# Track frame offsets:
# 150
# 36481
# 70880
# 104553
# 131315
# 176331
# 201555
# 231186
# 264202
#
# Disc length: 3781 seconds
#
#
# Revision: 0
# Processed by: cddbd v1.5.2PL0 Copyright (c) Steve Scherf et al.
# Submitted via: FreeRIP 2.951 
#
DISCID=7f0ec309
DTITLE=Dylan and Grateful Dead - Summer Interaction
DYEAR=2003
DGENRE=Blues
TTITLE0=Goin' Down the Road Feelin' Bad
TTITLE1=Senor
TTITLE2=Around and Around
TTITLE3=Big River
TTITLE4=Desolation Row
TTITLE5=Johnny B Goode
TTITLE6=Good Mornin' Little School Girl
TTITLE7=Ballad of a thin Man
TTITLE8=Oh, Boy
EXTD=
EXTT0=
EXTT1=
EXTT2=
EXTT3=
EXTT4=
EXTT5=
EXTT6=
EXTT7=
EXTT8=
PLAYORDER=
